<?xml version="1.0" encoding="UTF-8" standalone="no"?>
<!-- Created with Inkscape (http://www.inkscape.org/) -->

<svg
   width="36.440048mm"
   height="39.309631mm"
   viewBox="0 0 36.440048 39.30963"
   version="1.1"
   id="svg1"
   inkscape:export-filename="logo.svg"
   inkscape:export-xdpi="96"
   inkscape:export-ydpi="96"
   inkscape:version="1.4 (86a8ad7, 2024-10-11)"
   sodipodi:docname="logo.svg"
   xmlns:inkscape="http://www.inkscape.org/namespaces/inkscape"
   xmlns:sodipodi="http://sodipodi.sourceforge.net/DTD/sodipodi-0.dtd"
   xmlns:xlink="http://www.w3.org/1999/xlink"
   xmlns="http://www.w3.org/2000/svg"
   xmlns:svg="http://www.w3.org/2000/svg">
  <sodipodi:namedview
     id="namedview1"
     pagecolor="#ffffff"
     bordercolor="#000000"
     borderopacity="0.25"
     inkscape:showpageshadow="2"
     inkscape:pageopacity="0.0"
     inkscape:pagecheckerboard="0"
     inkscape:deskcolor="#d1d1d1"
     inkscape:document-units="mm"
     inkscape:zoom="1"
     inkscape:cx="243.5"
     inkscape:cy="131.5"
     inkscape:window-width="1920"
     inkscape:window-height="1017"
     inkscape:window-x="1912"
     inkscape:window-y="63"
     inkscape:window-maximized="1"
     inkscape:current-layer="layer1" />
  <defs
     id="defs1">
    <linearGradient
       id="linearGradient5"
       inkscape:collect="always">
      <stop
         style="stop-color:#f8e1b5;stop-opacity:1;"
         offset="0"
         id="stop3" />
      <stop
         style="stop-color:#a8875e;stop-opacity:1;"
         offset="0.54175591"
         id="stop4" />
      <stop
         style="stop-color:#3a2e1f;stop-opacity:1;"
         offset="1"
         id="stop5" />
    </linearGradient>
    <linearGradient
       id="linearGradient52"
       inkscape:collect="always">
      <stop
         style="stop-color:#f8e1b5;stop-opacity:1;"
         offset="0"
         id="stop54" />
      <stop
         style="stop-color:#a8875e;stop-opacity:1;"
         offset="0.51391864"
         id="stop55" />
      <stop
         style="stop-color:#3a2e1f;stop-opacity:1;"
         offset="1"
         id="stop53" />
    </linearGradient>
    <linearGradient
       id="linearGradient50"
       inkscape:collect="always">
      <stop
         style="stop-color:#f1c25e;stop-opacity:1;"
         offset="0"
         id="stop52" />
      <stop
         style="stop-color:#a8877d;stop-opacity:1;"
         offset="0.51245242"
         id="stop50" />
      <stop
         style="stop-color:#3a2e1f;stop-opacity:1;"
         offset="1"
         id="stop51" />
    </linearGradient>
    <clipPath
       clipPathUnits="userSpaceOnUse"
       id="clipPath28">
      <path
         d="M 0,595.276 H 841.89 V 0 H 0 Z"
         transform="translate(-446.18401,-139.2652)"
         id="path28" />
    </clipPath>
    <clipPath
       clipPathUnits="userSpaceOnUse"
       id="clipPath30">
      <path
         d="M 0,595.276 H 841.89 V 0 H 0 Z"
         transform="translate(-441.11891,-79.098499)"
         id="path30" />
    </clipPath>
    <clipPath
       clipPathUnits="userSpaceOnUse"
       id="clipPath28-2">
      <path
         d="M 0,595.276 H 841.89 V 0 H 0 Z"
         transform="translate(-446.18401,-139.2652)"
         id="path28-4" />
    </clipPath>
    <clipPath
       clipPathUnits="userSpaceOnUse"
       id="clipPath28-4">
      <path
         d="M 0,595.276 H 841.89 V 0 H 0 Z"
         transform="translate(-446.18401,-139.2652)"
         id="path28-8" />
    </clipPath>
    <clipPath
       clipPathUnits="userSpaceOnUse"
       id="clipPath30-8">
      <path
         d="M 0,595.276 H 841.89 V 0 H 0 Z"
         transform="translate(-441.11891,-79.098499)"
         id="path30-2" />
    </clipPath>
    <linearGradient
       inkscape:collect="always"
       xlink:href="#linearGradient50"
       id="linearGradient51"
       x1="28.448391"
       y1="93.056458"
       x2="114.11327"
       y2="138.60527"
       gradientUnits="userSpaceOnUse" />
    <linearGradient
       inkscape:collect="always"
       xlink:href="#linearGradient5"
       id="linearGradient54"
       x1="-17.918991"
       y1="106.41763"
       x2="-54.666992"
       y2="5.4533291"
       gradientUnits="userSpaceOnUse" />
    <linearGradient
       inkscape:collect="always"
       xlink:href="#linearGradient52"
       id="linearGradient57"
       x1="-21.374096"
       y1="44.885685"
       x2="-61.342884"
       y2="-44.885685"
       gradientUnits="userSpaceOnUse" />
  </defs>
  <g
     inkscape:label="logo"
     inkscape:groupmode="layer"
     id="layer1"
     style="display:inline"
     transform="translate(-22.770093,-63.499998)">
    <g
       id="g49"
       style="fill:url(#linearGradient51)"
       transform="matrix(0.37558749,0,0,0.37558749,14.217931,39.650193)">
      <path
         id="path27"
         d="M 0,0 C 0,2.409 -0.219,4.766 -0.616,7.063 L 5.268,8.075 C 5.345,7.63 5.4,7.182 5.467,6.736 5.527,6.289 5.604,5.844 5.649,5.396 L 5.773,4.049 C 5.814,3.6 5.863,3.151 5.873,2.7 L 2.855,2.53 2.838,2.934 C 2.831,3.069 2.815,3.204 2.804,3.338 L 2.729,4.145 4.209,4.283 4.123,5.222 C 4.096,5.536 4.039,5.846 3.998,6.157 L 0.718,5.716 0.809,5.091 C 0.835,4.882 0.849,4.671 0.87,4.461 L 0.986,3.202 1.015,2.888 1.029,2.572 1.055,1.94 1.108,0.676 7.775,0.782 C 7.72,4 7.356,7.219 6.677,10.373 L -0.937,8.736 c -0.65,3.009 -1.629,5.895 -2.896,8.622 l 5.417,2.51 c 0.402,-0.809 0.72,-1.655 1.07,-2.486 0.181,-0.414 0.321,-0.843 0.475,-1.267 L 3.583,14.839 0.712,13.892 0.168,15.419 1.562,15.936 1.403,16.38 c -0.055,0.147 -0.118,0.292 -0.177,0.437 l -0.36,0.873 -3.052,-1.28 0.482,-1.167 0.424,-1.19 c 0.302,-0.788 0.519,-1.602 0.768,-2.407 L 5.902,13.47 C 5.02,16.574 3.828,19.589 2.351,22.456 l -6.934,-3.569 c -1.401,2.716 -3.086,5.26 -5.029,7.586 l 4.586,3.829 c 0.566,-0.703 1.151,-1.39 1.671,-2.128 l 0.801,-1.09 0.749,-1.127 -2.526,-1.661 -0.448,0.675 -0.224,0.338 c -0.076,0.111 -0.159,0.218 -0.238,0.328 l 1.212,0.861 -1.121,1.519 -2.616,-2.027 0.751,-1.018 c 0.248,-0.34 0.507,-0.673 0.732,-1.03 0.464,-0.703 0.945,-1.396 1.36,-2.129 l 5.718,3.43 c -1.658,2.765 -3.589,5.365 -5.754,7.752 l -5.769,-5.234 c -2.043,2.252 -4.336,4.269 -6.824,6.027 l 3.447,4.884 c 0.184,-0.13 0.375,-0.251 0.554,-0.389 l 0.539,-0.409 1.076,-0.819 c 0.353,-0.281 0.694,-0.577 1.041,-0.865 l 0.518,-0.435 0.259,-0.217 0.249,-0.229 -2.012,-2.255 c -0.195,0.187 -0.405,0.358 -0.612,0.531 l -0.621,0.521 0.949,1.144 c -0.243,0.201 -0.479,0.409 -0.727,0.603 l -0.75,0.571 -2.006,-2.632 c 1.355,-1.005 2.609,-2.136 3.84,-3.286 l 4.64,4.789 c -2.316,2.242 -4.852,4.256 -7.561,6.004 l -4.235,-6.556 c -2.536,1.641 -5.257,3.02 -8.133,4.08 l 2.056,5.591 1.267,-0.477 c 0.419,-0.166 0.83,-0.354 1.245,-0.53 0.412,-0.185 0.833,-0.349 1.236,-0.55 l 1.215,-0.598 -1.362,-2.698 c -0.485,0.236 -0.967,0.482 -1.456,0.711 l 0.621,1.35 -1.732,0.751 -1.256,-3.062 1.16,-0.503 0.579,-0.252 0.566,-0.28 1.134,-0.557 c 0.374,-0.194 0.738,-0.406 1.108,-0.608 l 3.247,5.824 c -2.816,1.57 -5.788,2.862 -8.86,3.848 l -2.38,-7.41 c -2.851,0.918 -5.835,1.532 -8.917,1.809 l 0.531,5.942 1.345,-0.149 c 0.448,-0.05 0.898,-0.093 1.342,-0.174 0.889,-0.151 1.785,-0.266 2.664,-0.474 l -0.611,-2.96 -0.793,0.168 -0.8,0.13 0.247,1.465 -0.931,0.151 -0.466,0.076 -0.469,0.052 -0.414,-3.283 c 0.42,-0.036 0.834,-0.116 1.25,-0.181 l 1.247,-0.202 1.236,-0.264 c 0.411,-0.091 0.826,-0.164 1.231,-0.283 l 1.619,6.469 c -3.13,0.783 -6.337,1.253 -9.555,1.406 l -0.374,-7.764 c -0.673,0.033 -1.35,0.052 -2.031,0.052 -2.409,0 -4.766,-0.219 -7.063,-0.616 l -1.012,5.883 c 0.445,0.077 0.893,0.133 1.339,0.199 0.446,0.06 0.892,0.137 1.34,0.182 l 1.347,0.125 c 0.449,0.04 0.898,0.089 1.349,0.099 l 0.17,-3.018 -0.405,-0.016 c -0.134,-0.008 -0.269,-0.024 -0.403,-0.035 l -0.807,-0.074 -0.138,1.48 -0.939,-0.087 c -0.314,-0.026 -0.624,-0.084 -0.936,-0.125 l 0.442,-3.279 0.625,0.09 c 0.209,0.027 0.42,0.04 0.629,0.061 l 1.259,0.116 0.315,0.03 0.316,0.014 0.632,0.025 1.264,0.053 -0.106,6.667 c -3.218,-0.054 -6.437,-0.419 -9.591,-1.098 l 1.636,-7.613 c -3.008,-0.65 -5.894,-1.629 -8.622,-2.896 l -2.509,5.416 c 0.808,0.403 1.654,0.72 2.486,1.071 0.414,0.18 0.843,0.32 1.267,0.474 l 1.276,0.454 0.947,-2.87 -1.527,-0.544 -0.517,1.393 -0.445,-0.158 c -0.147,-0.056 -0.291,-0.119 -0.437,-0.178 l -0.872,-0.36 1.28,-3.052 1.167,0.483 1.19,0.423 c 0.787,0.302 1.602,0.519 2.407,0.768 l -1.824,6.414 c -3.104,-0.882 -6.119,-2.074 -8.986,-3.55 l 3.568,-6.935 c -2.715,-1.4 -5.259,-3.086 -7.585,-5.028 l -3.829,4.585 c 0.703,0.566 1.39,1.151 2.128,1.671 l 1.09,0.801 1.127,0.749 1.661,-2.525 -0.676,-0.448 -0.337,-0.224 c -0.111,-0.077 -0.218,-0.159 -0.328,-0.238 l -0.861,1.211 -1.519,-1.12 2.027,-2.616 1.017,0.75 c 0.341,0.248 0.674,0.507 1.031,0.732 0.703,0.464 1.396,0.945 2.129,1.361 l -3.431,5.718 c -2.764,-1.659 -5.364,-3.589 -7.751,-5.754 l 5.234,-5.77 c -2.252,-2.042 -4.269,-4.335 -6.028,-6.823 l -4.883,3.447 c 0.13,0.184 0.251,0.375 0.388,0.553 l 0.409,0.539 0.82,1.077 c 0.281,0.352 0.576,0.693 0.864,1.04 l 0.435,0.518 0.218,0.259 0.229,0.249 2.255,-2.012 c -0.188,-0.195 -0.358,-0.405 -0.532,-0.611 l -0.52,-0.621 -1.145,0.948 c -0.2,-0.242 -0.408,-0.478 -0.602,-0.726 l -0.571,-0.751 2.632,-2.006 c 1.005,1.355 2.136,2.609 3.286,3.84 l -4.789,4.64 c -2.242,-2.316 -4.256,-4.852 -6.004,-7.561 l 6.555,-4.234 c -1.64,-2.537 -3.019,-5.257 -4.079,-8.133 l -5.591,2.055 0.477,1.267 c 0.166,0.42 0.354,0.83 0.53,1.245 0.184,0.412 0.348,0.833 0.55,1.237 l 0.597,1.214 2.699,-1.361 c -0.236,-0.486 -0.482,-0.967 -0.711,-1.456 l -1.351,0.62 -0.75,-1.732 3.062,-1.255 0.503,1.159 0.252,0.579 0.279,0.567 0.558,1.134 c 0.193,0.374 0.406,0.738 0.608,1.108 l -5.825,3.247 c -1.57,-2.816 -2.862,-5.789 -3.848,-8.86 l 7.411,-2.38 C -81.649,9.799 -82.263,6.814 -82.54,3.733 l -5.942,0.531 0.148,1.345 c 0.051,0.448 0.094,0.897 0.175,1.341 0.151,0.89 0.266,1.786 0.474,2.665 l 2.96,-0.612 -0.168,-0.792 -0.13,-0.8 -1.465,0.247 -0.152,-0.932 -0.075,-0.465 -0.053,-0.469 3.284,-0.415 c 0.036,0.42 0.115,0.834 0.181,1.25 l 0.201,1.248 0.264,1.235 c 0.092,0.411 0.165,0.827 0.284,1.231 l -6.469,1.619 c -0.783,-3.129 -1.253,-6.337 -1.406,-9.554 l 7.764,-0.374 C -82.698,1.358 -82.717,0.681 -82.717,0 c 0,-2.378 0.207,-4.741 0.611,-7.063 l -5.879,-1.011 c -0.076,0.444 -0.132,0.892 -0.199,1.338 -0.059,0.447 -0.136,0.892 -0.181,1.341 l -0.125,1.347 c -0.04,0.449 -0.09,0.897 -0.099,1.348 l 3.017,0.171 0.017,-0.405 c 0.008,-0.135 0.024,-0.269 0.035,-0.404 l 0.074,-0.807 -1.48,-0.137 0.087,-0.94 c 0.026,-0.313 0.084,-0.623 0.124,-0.935 l 3.28,0.441 -0.09,0.626 c -0.027,0.209 -0.04,0.419 -0.061,0.629 l -0.116,1.259 -0.03,0.315 -0.014,0.316 -0.025,0.632 -0.053,1.264 -6.668,-0.106 c 0.055,-3.219 0.42,-6.438 1.099,-9.591 l 7.615,1.636 c 0.643,-2.974 1.613,-5.868 2.887,-8.626 l -5.41,-2.506 c -0.402,0.809 -0.719,1.655 -1.07,2.486 -0.181,0.414 -0.321,0.844 -0.475,1.268 l -0.453,1.275 2.87,0.947 0.544,-1.526 -1.394,-0.518 0.159,-0.444 c 0.056,-0.147 0.119,-0.291 0.178,-0.437 l 0.36,-0.873 3.052,1.28 -0.483,1.168 -0.424,1.19 c -0.301,0.787 -0.519,1.602 -0.768,2.406 l -6.413,-1.824 c 0.881,-3.103 2.074,-6.119 3.55,-8.986 l 6.922,3.562 c 1.335,-2.604 2.948,-5.072 4.823,-7.352 l 0.28,-0.333 1.474,1.338 -0.211,0.252 c -5.769,7.015 -8.946,15.889 -8.946,24.989 0,21.708 17.66,39.368 39.368,39.368 21.707,0 39.368,-17.66 39.368,-39.368 0,-21.708 -17.661,-39.368 -39.368,-39.368 -7.53,0 -14.847,2.132 -21.163,6.166 l -1.071,-1.678 c 2.52,-1.609 5.192,-2.929 7.97,-3.949 l -2.053,-5.585 -1.267,0.477 c -0.42,0.166 -0.83,0.354 -1.245,0.531 -0.412,0.184 -0.833,0.348 -1.237,0.549 l -1.214,0.598 1.361,2.698 c 0.486,-0.236 0.967,-0.482 1.456,-0.71 l -0.62,-1.351 1.732,-0.75 1.255,3.062 -1.159,0.502 -0.579,0.252 -0.567,0.28 -1.134,0.557 c -0.374,0.194 -0.738,0.406 -1.108,0.608 l -3.247,-5.824 c 2.816,-1.57 5.789,-2.862 8.86,-3.848 l 2.378,7.403 c 2.887,-0.926 5.876,-1.531 8.919,-1.805 l -0.531,-5.939 -1.345,0.149 c -0.448,0.05 -0.897,0.093 -1.341,0.174 -0.89,0.151 -1.786,0.267 -2.665,0.475 l 0.612,2.96 0.792,-0.169 0.8,-0.129 -0.247,-1.466 0.931,-0.151 0.466,-0.076 0.469,-0.052 0.415,3.283 c -0.42,0.036 -0.834,0.116 -1.25,0.181 l -1.248,0.202 -1.235,0.264 c -0.411,0.092 -0.827,0.164 -1.231,0.283 l -1.619,-6.469 c 3.129,-0.783 6.337,-1.253 9.554,-1.406 l 0.374,7.768 c 0.676,-0.033 1.353,-0.055 2.032,-0.055 2.408,0 4.765,0.218 7.062,0.615 l 1.012,-5.883 c -0.444,-0.077 -0.892,-0.132 -1.338,-0.199 -0.447,-0.06 -0.892,-0.137 -1.341,-0.182 l -1.347,-0.125 c -0.449,-0.04 -0.897,-0.089 -1.348,-0.099 l -0.171,3.018 0.405,0.017 c 0.135,0.007 0.269,0.023 0.404,0.034 l 0.807,0.075 0.137,-1.48 0.94,0.086 c 0.313,0.027 0.623,0.084 0.935,0.125 l -0.441,3.28 -0.626,-0.091 c -0.209,-0.027 -0.419,-0.04 -0.629,-0.061 l -1.259,-0.116 -0.315,-0.029 -0.316,-0.014 -0.632,-0.026 -1.264,-0.053 0.106,-6.667 c 3.219,0.054 6.438,0.419 9.591,1.098 l -1.636,7.614 c 3.009,0.649 5.895,1.629 8.622,2.895 l 2.51,-5.416 c -0.809,-0.402 -1.655,-0.72 -2.486,-1.07 -0.414,-0.181 -0.844,-0.321 -1.268,-0.475 l -1.275,-0.454 -0.947,2.871 1.526,0.543 0.518,-1.393 0.444,0.158 c 0.147,0.056 0.291,0.119 0.437,0.178 l 0.872,0.36 -1.279,3.052 -1.168,-0.483 -1.19,-0.423 c -0.787,-0.302 -1.602,-0.519 -2.406,-0.768 l 1.824,-6.414 c 3.103,0.882 6.119,2.074 8.986,3.551 l -3.569,6.934 c 2.716,1.4 5.26,3.086 7.585,5.029 l 3.829,-4.586 c -0.702,-0.566 -1.39,-1.151 -2.127,-1.671 l -1.091,-0.801 -1.127,-0.749 -1.66,2.525 0.675,0.448 0.338,0.224 c 0.111,0.077 0.218,0.159 0.327,0.239 l 0.862,-1.212 1.518,1.121 -2.027,2.615 -1.017,-0.75 c -0.341,-0.248 -0.674,-0.507 -1.03,-0.732 -0.703,-0.464 -1.396,-0.945 -2.13,-1.361 l 3.431,-5.718 c 2.765,1.659 5.365,3.59 7.752,5.754 l -5.234,5.77 c 2.251,2.043 4.269,4.335 6.027,6.824 l 4.884,-3.447 c -0.13,-0.185 -0.252,-0.375 -0.389,-0.554 l -0.409,-0.539 -0.819,-1.076 c -0.282,-0.353 -0.577,-0.694 -0.865,-1.041 l -0.435,-0.518 -0.218,-0.259 -0.228,-0.249 -2.255,2.012 c 0.187,0.195 0.357,0.405 0.531,0.612 l 0.521,0.621 1.144,-0.949 c 0.2,0.242 0.408,0.479 0.602,0.726 l 0.571,0.751 -2.632,2.006 c -1.004,-1.355 -2.135,-2.609 -3.286,-3.84 l 4.79,-4.64 c 2.241,2.316 4.255,4.852 6.003,7.561 l -6.555,4.235 c 1.64,2.536 3.02,5.257 4.079,8.133 l 5.592,-2.056 -0.477,-1.267 c -0.166,-0.419 -0.354,-0.83 -0.531,-1.245 -0.184,-0.412 -0.348,-0.833 -0.55,-1.237 l -0.597,-1.214 -2.699,1.362 c 0.237,0.485 0.483,0.966 0.711,1.456 l 1.351,-0.621 0.75,1.732 -3.062,1.256 -0.502,-1.16 -0.252,-0.579 -0.28,-0.566 -0.558,-1.134 c -0.193,-0.375 -0.406,-0.739 -0.607,-1.108 l 5.824,-3.248 c 1.57,2.816 2.862,5.789 3.848,8.861 l -7.411,2.38 c 0.918,2.851 1.532,5.835 1.809,8.916 L 5.766,-4.263 5.617,-5.608 C 5.567,-6.057 5.524,-6.506 5.443,-6.95 5.291,-7.839 5.176,-8.735 4.968,-9.614 l -2.96,0.611 0.169,0.793 0.129,0.799 1.466,-0.247 0.151,0.932 0.075,0.466 0.053,0.469 -3.283,0.414 C 0.732,-5.797 0.652,-6.211 0.587,-6.627 L 0.385,-7.874 0.121,-9.11 c -0.092,-0.411 -0.164,-0.826 -0.283,-1.231 l 6.468,-1.619 c 0.784,3.13 1.254,6.337 1.407,9.555 l -7.765,0.374 C -0.019,-1.358 0,-0.681 0,0 m -77.761,-27.647 0.978,1.058 c -0.079,0.11 -0.855,1.169 -0.931,1.28 l -0.224,0.338 -0.448,0.675 -2.526,-1.661 0.75,-1.126 0.801,-1.091 c 0.52,-0.738 2.548,-3.26 3.113,-3.963 l 0.015,0.026 c 0.012,-0.056 0.028,-0.11 0.047,-0.163 l -1.032,-1.407 c -2.165,2.387 -4.636,5.673 -6.294,8.438 l 5.718,3.431 c 0.416,-0.734 0.896,-1.427 1.36,-2.13 0.225,-0.357 0.484,-0.69 0.732,-1.03 l 1,-1.486 -1.939,-2.708 z"
         style="opacity:1;mix-blend-mode:normal;fill:url(#linearGradient57);fill-rule:evenodd;stroke:none;stroke-width:1;stroke-dasharray:none"
         transform="matrix(0.90299568,0,0,-0.90299568,108.62702,112.01009)"
         clip-path="url(#clipPath28-4)" />
      <path
         id="path29"
         d="m 0,0 -8.108,14.43 c 3.068,1.894 5.944,4.096 8.575,6.565 L 12.652,0 Z m -62.791,15.768 7.15,12.419 c 5.825,-3.531 12.49,-5.396 19.348,-5.396 20.609,0 37.375,16.766 37.375,37.376 0,20.609 -16.766,37.375 -37.375,37.375 -20.609,0 -37.376,-16.766 -37.376,-37.375 0,-8.342 2.681,-16.198 7.747,-22.773 l -7.585,-13.101 c -9.347,9.684 -14.491,22.365 -14.491,35.874 0,28.51 23.195,51.704 51.705,51.704 28.51,0 51.705,-23.194 51.705,-51.704 0,-28.511 -23.195,-51.705 -51.705,-51.705 -9.367,0 -18.508,2.528 -26.498,7.306 m 43.992,13.607 c -5.165,-2.946 -11.134,-4.639 -17.494,-4.639 -6.516,0 -12.839,1.791 -18.368,5.152 l 18.279,31.747 z M -7.762,39.19 -36.359,88.46 -64.868,39.216 c -4.49,6.099 -6.856,13.311 -6.856,20.951 0,19.536 15.894,35.43 35.431,35.43 19.536,0 35.43,-15.894 35.43,-35.43 0,-7.845 -2.567,-15.1 -6.899,-20.977 M -74.197,0 h -11.044 l 48.884,84.438 27.245,-46.94 c -2.292,-2.745 -4.967,-5.113 -7.971,-7.057 l -19.251,35.321 z m 91.626,60.167 c 0,29.622 -24.1,53.722 -53.722,53.721 -29.622,0 -53.722,-24.099 -53.722,-53.721 0,-14.229 5.49,-27.576 15.457,-37.689 L -88.739,-2.017 h 15.708 l 9.233,16.037 c 8.297,-4.954 17.784,-7.575 27.505,-7.575 9.606,0 18.624,2.547 26.435,6.982 L -1.181,-2.017 H 16.155 L 1.94,22.474 c 9.57,9.705 15.489,23.019 15.489,37.693"
         style="fill:url(#linearGradient54);fill-opacity:1;fill-rule:evenodd;stroke:none;stroke-width:1;stroke-dasharray:none"
         transform="matrix(0.90299568,0,0,-0.90299568,104.05325,166.34037)"
         clip-path="url(#clipPath30-8)" />
    </g>
  </g>
</svg>
